<svg width="100" height="120" viewBox="0 0 100 120" fill="none" xmlns="http://www.w3.org/2000/svg">
<path d="M50 1.728C32.3 1.728 17.8 15.648 17.8 32.64V63.552C17.8 80.544 32.3 94.464 50 94.464C67.7001 94.464 82.2 80.544 82.2 63.552V32.544C82.2 15.552 67.7001 1.728 50 1.728ZM77.6 63.456C77.6 78.048 65.2 89.952 50 89.952C34.8 89.952 22.4 77.952 22.4 63.456V32.544C22.4 18.048 34.8 6.048 50 6.048C65.2 6.048 77.6 17.952 77.6 32.544V63.456Z" fill="black"/>
<path d="M50 21.504C48.7 21.504 47.7 22.464 47.7 23.712V34.752C47.7 36 48.7 36.96 50 36.96C51.3 36.96 52.2999 36 52.2999 34.752V23.712C52.2999 22.56 51.3 21.504 50 21.504Z" fill="black"/>
</svg>
